<mxfile host="app.diagrams.net" modified="2023-08-30T05:30:20.914Z" agent="Mozilla/5.0 (Windows NT 10.0; Win64; x64) AppleWebKit/537.36 (KHTML, like Gecko) Chrome/116.0.0.0 Safari/537.36" version="21.3.8" etag="AK7M1PEF5PiB6iJ6V5Vc" type="github">
  <diagram name="Page-1" id="Kb9HEE1WfmCnZC967clu">
    <mxGraphModel>
      <root>
        <mxCell id="0" />
        <mxCell id="1" parent="0" />
      </root>
    </mxGraphModel>
  </diagram>
</mxfile>
